<svg width="41.909mm" height="67.733mm" version="1.1" viewBox="0 0 41.909 67.733" xmlns="http://www.w3.org/2000/svg">
 <g transform="translate(211.79 -104.75)">
  <g transform="matrix(1.0594 0 0 1.0594 12.586 -10.25)">
   <path d="m-192.01 108.55c-9.2002 0.0117-19.379 7.8478-19.724 16.416-0.3403 8.4566 0.9948 28.053 0.9948 28.053l3.7109 1.9704v-20.459h-2.5027v-7.6807h10.012l7.5091 15.362 7.5086-15.362h10.012v7.6807h-2.5032v20.459l3.7114-1.9704s1.3345-19.596 0.9942-28.053c-0.3453-8.5806-10.523-16.427-19.723-16.416zm-7.5091 33.661v16.764l7.5091 3.9868 7.5086-3.9863v-16.764l-7.5086 15.361z" fill="#dd676b"/>
   <path d="m-182.11 111.32c-5.4098 3.0298-9.682 8.1891-9.9017 13.65-0.2196-5.4567-4.4858-10.612-9.8898-13.643-5.404 3.0308-9.6145 8.1871-9.8341 13.644-0.3402 8.4566 0.9948 28.053 0.9948 28.053l3.7109 1.9704v-20.459h-2.5027v-7.6807h10.012l7.1174 14.56c0.1585-3.3338 0.3157-6.9241 0.3917-10.155 0.076 3.2308 0.2331 6.8212 0.3917 10.155l7.1169-14.56h10.012v7.6807h-2.5032v20.459l3.7114-1.9704s1.3345-19.596 0.9942-28.053c-0.2197-5.4607-4.4236-10.62-9.8216-13.65zm-17.411 30.896v14.236l5.5252-2.9332zm15.018 0-5.5248 11.303 5.5248 2.9326z" fill="#d45459"/>
   <path d="m-192.01 124.97-6.5743 3.7962 6.835 9.8066 6.3136-9.8071zm-16.564 9.5648-3.0411 1.756c0.298 8.2241 0.8759 16.732 0.8759 16.732l3.7109 1.9704v-20.459zm31.582 0v20.459l3.7114-1.9704s0.578-8.5093 0.8759-16.734l-3.0386-1.7544zm-22.527 7.6812v16.764l7.5091 3.9868 7.5086-3.9863v-16.764l-7.5086 15.361z" fill="#ac3c40"/>
   <path d="m-209.53 124.96a1.8496 1.8919 0 0 0-1.85 1.8924v7.6822a1.8496 1.8919 0 0 0 1.85 1.8924h0.6527v15.723l-1.9808-1.0082c0.048 0.75064 0.1194 1.88 0.1194 1.88l0.4811 0.25528 3.2298 1.7151v-20.459h-2.5027v-7.6807h10.012l7.5091 15.362 7.5086-15.362h10.012v7.6807h-2.5032v20.459l3.2282-1.7141 0.4832-0.25631s0.071-1.1294 0.1194-1.88l-1.9808 1.0082v-15.723h0.6527a1.8496 1.8919 0 0 0 1.85-1.8924v-7.6822a1.8496 1.8919 0 0 0-1.85-1.8924h-10.011a1.8496 1.8919 0 0 0-1.6547 1.047l-5.8554 11.977-5.8534-11.977a1.8496 1.8919 0 0 0-1.6552-1.047zm10.011 17.255v16.764l1.85 0.98237 5.6591 3.0045 5.6591-3.0045 1.8495-0.98185v-16.764l-7.5086 15.361zm1.85 8.0155 4.0029 8.1918a1.8496 1.8919 0 0 0 3.3103 0l4.005-8.1918v7.6254l-5.6591 2.8804-5.6591-2.8804z" fill="#8273cd"/>
   <g transform="scale(.99286 1.0072)" fill="#8273cd" stroke-width=".22372" aria-label="Xavier">
    <path d="m-211.54 171.25v-3.4363l1.2886 2.5772 1.2886-2.5772v3.4363h1.7182v-1.2886h-0.42954v-3.4363h0.42954v-1.2886h-1.7182l-1.2886 2.5772-1.2886-2.5772h-1.7182v1.2886h0.42954v3.4363h-0.42954v1.2886z"/>
    <path d="m-205.09 168.68v-2.1477h1.2886v2.1477zm0 2.5772v-1.7182h1.2886v1.7182h1.7181v-1.2886h-0.42953v-4.2954c0-0.22372-0.20582-0.42954-0.42954-0.42954h-3.0068c-0.24161 0-0.42954 0.18793-0.42954 0.42954v4.2954h-0.42953v1.2886z"/>
    <path d="m-197.79 171.25v-3.4363h-2.1477v0.85907h0.85907v1.2886h-1.2886v-3.4363h1.2886v0.42953h1.2886v-1.7182h-3.4363c-0.24162 0-0.42954 0.18793-0.42954 0.42954v5.1544c0 0.25951 0.17002 0.42953 0.42954 0.42953z"/>
    <path d="m-195.64 171.25v-3.4363l1.7182 3.4363h1.7182v-1.2886h-0.42954v-3.4363h0.42954v-1.2886h-1.7182v3.4363l-1.7182-3.4363h-1.7182v1.2886h0.42954v3.4363h-0.42954v1.2886z"/>
    <path d="m-187.48 171.25v-1.7182h-1.2886v0.42954h-1.2886v-1.2886h1.7182v-0.85907h-1.7182v-1.2886h1.2886v0.42953h1.2886v-1.7182h-4.2954v1.2886h0.42953v3.4363h-0.42953v1.2886z"/>
    <path d="m-183.62 171.25v-1.2886h-0.42954v-3.4363h0.85907v1.2886h0.85908v-2.5772h-4.7249v2.5772h0.85907v-1.2886h0.85908v3.4363h-0.42954v1.2886z"/>
    <path d="m-180.61 169.96v-3.4363h1.2886v3.4363zm2.1477 1.2886c0.24161 0 0.42953-0.18792 0.42953-0.42953v-5.1544c0-0.22372-0.20582-0.42954-0.42953-0.42954h-3.0068c-0.24162 0-0.42954 0.18793-0.42954 0.42954v5.1544c0 0.25951 0.17003 0.42953 0.42954 0.42953z"/>
    <path d="m-173.96 171.25c0.24161 0 0.42953-0.18792 0.42953-0.42953v-2.5772c0-0.22371-0.20581-0.42953-0.42953-0.42953h-2.1477v-1.2886h1.2886v0.42953h1.2886v-1.7182h-3.4363c-0.24162 0-0.42954 0.18793-0.42954 0.42954v2.5772c0 0.25952 0.17003 0.42954 0.42954 0.42954h2.1477v1.2886h-1.2886v-0.42954h-1.2886v1.7182z"/>
   </g>
  </g>
 </g>
</svg>
