<svg width="81.756mm" height="110.15mm" version="1.1" viewBox="0 0 81.756 110.15" xmlns="http://www.w3.org/2000/svg">
 <g transform="translate(-23.58 31.134)">
  <path d="m99.35 9.7443a34.892 34.892 0 0 1-34.892 34.892 34.892 34.892 0 0 1-34.892-34.892 34.892 34.892 0 0 1 34.892-34.892 34.892 34.892 0 0 1 34.892 34.892z" fill="#d45459" fill-rule="evenodd" style="paint-order:stroke fill markers"/>
  <path transform="matrix(.26458 0 0 .26458 23.58 -31.134)" d="m154.5 0a154.5 154.5 0 0 0-154.5 154.5 154.5 154.5 0 0 0 154.5 154.5 154.5 154.5 0 0 0 154.5-154.5 154.5 154.5 0 0 0-154.5-154.5zm0 29.41a125.09 125.09 0 0 1 34.145 4.8652l3.998 14.916c-11.117 3.1495-20.627 7.8327-28.529 14.051-7.7428 6.1754-13.225 13.455-16.447 21.836-3.0625 8.3386-3.3328 17.212-0.8125 26.617 2.9047 10.84 7.7249 18.945 14.461 24.316 6.8527 5.1692 14.235 8.4888 22.146 9.957 8.0281 1.2661 18.228 2.0344 30.604 2.3066l5.168 0.1543 12.559 46.869c-6.7184 0.43329-12.568-0.99043-17.547-4.2695-5.0221-3.4385-8.6214-7.9416-10.797-13.51l-35.869 9.6113c4.9176 13.889 13.754 23.91 26.508 30.061 12.871 5.9487 27.79 7.4178 44.754 4.4102l5.2539 19.609 0.49805-0.13282a125.09 125.09 0 0 1-90.092 38.512 125.09 125.09 0 0 1-65.975-18.992l0.52344-0.14063-17.619-65.76 14.826-3.9727 57.076 55.188 37.303-9.9961-60.154-56.156c12.622-6.4577 21.286-14.93 25.994-25.418 4.8672-10.531 5.5931-22.174 2.1758-34.928-4.1862-15.623-12.743-26.829-25.668-33.617-12.766-6.8313-28.952-7.6193-48.561-2.3652l-27.396 7.3418a125.09 125.09 0 0 1 107.47-61.363zm44.848 8.4629a125.09 125.09 0 0 1 16.082 7.4375c-4.3571 0.1985-8.8974 0.7515-13.637 1.6855zm11.662 35.361c4.9791 0.03009 9.3826 1.3278 13.209 3.8906 4.4897 2.7269 7.8382 6.6129 10.045 11.66l22.52-6.0332a125.09 125.09 0 0 1 20.197 46.971c-5.8548-4.0053-12.177-6.6265-18.98-7.8281-8.0708-1.4256-18.236-2.3752-30.494-2.8496l-6.4902-0.31054-12.176-45.434c0.73483-0.04739 1.4586-0.0707 2.1699-0.06641zm-11.447 1.7832 11.533 43.043c-7.9-0.78789-14.234-2.4223-19-4.9043-4.8085-2.6414-7.9818-6.8332-9.5195-12.572-1.6232-6.0579-0.97001-11.274 1.959-15.646 3.0884-4.4157 8.0984-7.7216 15.027-9.9199zm-108.57 35.895c4.5699-5e-3 8.5035 0.94395 11.801 2.8477 5.9786 3.1822 10.058 8.8384 12.236 16.969 4.5706 17.058-2.7885 28.171-22.078 33.34l-27.738 7.4336-13.777-51.412 27.74-7.4336c4.3242-1.1587 8.262-1.7402 11.816-1.7441zm138.16 38.191c8.1761 0.54303 14.749 2.1142 19.717 4.7129 5.0846 2.3966 8.4156 6.5429 9.9961 12.441 1.6659 6.2173 0.96174 11.875-2.1152 16.971-3.1197 4.9366-8.3247 8.4674-15.615 10.592zm35.523 64.541a125.09 125.09 0 0 1-13.01 19.479l-3.6113-13.477 0.23828-0.0644c6.0176-1.6124 11.474-3.595 16.383-5.9375z" fill="#353535" fill-rule="evenodd" style="paint-order:stroke fill markers"/>
  <path d="m75.401 56.442c-0.73654 0-1.3311 0.20774-1.7844 0.62322-0.45326 0.3966-0.68006 0.91593-0.68006 1.558 0 0.62323 0.22681 1.1426 0.68006 1.558 0.45326 0.3966 1.0478 0.5948 1.7844 0.5948 0.73654 0 1.3316-0.1982 1.7849-0.5948 0.45326-0.41548 0.68006-0.93482 0.68006-1.558 0-0.64211-0.22681-1.1614-0.68006-1.558-0.45326-0.41548-1.0484-0.62322-1.7849-0.62322zm29.936 6.4585c-1.1898 0-2.2661 0.29304-3.2293 0.8785-0.96317 0.56657-1.7379 1.3503-2.3234 2.3513v-3.0029h-3.9941v15.694h3.9941v-7.5639c0-2.7195 1.4637-4.0793 4.391-4.0793h1.1617zm-59.376 0.02842c-1.322 0-2.5117 0.32114-3.5693 0.96325s-1.8885 1.5769-2.4929 2.8045c-0.58546 1.2087-0.87798 2.6347-0.87798 4.2778 0 1.6431 0.29253 3.0781 0.87798 4.3057 0.60434 1.2087 1.4353 2.1345 2.4929 2.7766s2.2473 0.96273 3.5693 0.96273 2.4555-0.3116 3.3998-0.93482c0.94428-0.64211 1.6146-1.4916 2.0112-2.5492v3.2861h3.9656v-15.694h-3.9656v3.2577c-0.3966-1.0576-1.067-1.8981-2.0112-2.5213-0.94428-0.62323-2.0778-0.93483-3.3998-0.93483zm40.703 0c-1.5297 0-2.8895 0.32114-4.0793 0.96325-1.1898 0.64211-2.1151 1.5769-2.7761 2.8045-0.661 1.2087-0.99115 2.6347-0.99115 4.2778 0 1.6431 0.33016 3.0691 0.99115 4.2778 0.661 1.2087 1.5863 2.1435 2.7761 2.8045 1.1898 0.64211 2.5496 0.96273 4.0793 0.96273 1.3031 0 2.4838-0.24536 3.5414-0.73639 1.0765-0.49103 1.9546-1.1709 2.6345-2.0397 0.67988-0.86874 1.1234-1.8507 1.3312-2.9461h-4.2209c-0.16997 0.77431-0.56636 1.388-1.1896 1.8412-0.60434 0.45326-1.369 0.68006-2.2944 0.68006-1.0387 0-1.9078-0.33067-2.6066-0.99167-0.69877-0.661-1.0761-1.6901-1.1327-3.0877h11.501c0.09443-0.50991 0.14159-0.96301 0.14159-1.3596 0-1.4353-0.32114-2.7103-0.96325-3.8246-0.62323-1.1331-1.5199-2.0208-2.6908-2.6629-1.152-0.64211-2.5028-0.96325-4.0514-0.96325zm-63.011 0.19844 5.2974 7.507-5.1842 8.1871h4.3909l3.0029-5.0426 3.5693 5.0426h4.4757l-5.4674-7.7339 5.2694-7.9602h-4.3909l-3.0029 4.9573-3.4845-4.9573zm32.444 0 5.8074 15.694h4.8726l5.8074-15.694h-4.2494l-3.9662 11.7-3.9941-11.7zm17.292 0v15.694h3.9946v-15.694zm13.274 2.9461c1.0576 0 1.9452 0.33067 2.6629 0.99167 0.73654 0.661 1.0768 1.6334 1.0201 2.9177h-7.6202c0.07554-1.2842 0.48147-2.2567 1.218-2.9177 0.73654-0.661 1.6427-0.99167 2.7192-0.99167zm-39.457 0.34003c1.2087 0 2.2002 0.41547 2.9745 1.2464 0.7932 0.81208 1.1901 1.917 1.1901 3.3145 0 1.3787-0.39691 2.4836-1.1901 3.3145-0.77431 0.81208-1.7658 1.218-2.9745 1.218-1.2465 0-2.247-0.39639-3.0024-1.1896-0.75543-0.81208-1.1333-1.9265-1.1333-3.3429s0.37784-2.5309 1.1333-3.3429 1.7559-1.218 3.0024-1.218z" fill="#353535"/>
 </g>
</svg>
